<svg width="100%" height="100%" viewBox="0 0 39 39" fill="none" xmlns="http://www.w3.org/2000/svg">
  <path fill="white" d="M39 0H0V39H39V0Z" />
  <path fill="black" fill-rule="evenodd" clip-rule="evenodd" d="M5 16.0001V13H5.99978V13.9998H6.99991V16.0001H5ZM8.00005 19.9999H6.99991V19.0001H8.00005V19.9999ZM8.00005 19.9999H8.99983V21H8.00005V19.9999ZM5 34V27.0001H11.9999V34H5ZM10.9997 27.9999H5.99978V33.0002H10.9997V27.9999ZM6.99991 32.0001V29H9.99996V32.0001H6.99991ZM18 22.9999V26H16.0001V24.9999H14.9999V22.9999H13V22.0002H13.9998V21H13V19.9999H14.9999V22.0002H16.0001V24.0001H16.9998V22.9999H18ZM14.9999 33.0002H16.0001V34H14.9999V33.0002ZM13 19.9999H9.99996V19.0001H8.99983V16.9998H11.9999V18H10.9997V19.0001H13V19.9999ZM13 19.0001V16.9998H14.9999V19.0001H13ZM33.0002 32.0001V30.0002H34V32.0001H33.0002ZM14.9999 16.9998V16.0001H13V13H13.9998V11.9999H14.9999V10.9997H16.0001V13.9998H16.9998V14.9999H16.0001V16.9998H14.9999ZM13.9998 11.9999H13V9.99996H13.9998V5.99978H14.9999V10.9997H13.9998V11.9999ZM16.9998 13.9998V13H18V13.9998H16.9998ZM18 13V11.9999H19.0001V13H18ZM18 11.9999H16.9998V9.99996H16.0001V5.99978H16.9998V5H18V8.00005H16.9998V8.99983H18V11.9999ZM18 8.00005H19.0001V8.99983H18V8.00005ZM19.0001 8.00005V6.99991H21V8.00005H19.0001ZM21 6.99991V5.99978H22.0002V5H24.9999V5.99978H22.9999V8.00005H22.0002V6.99991H21ZM22.0002 8.00005V8.99983H21V8.00005H22.0002ZM22.0002 8.99983H24.0001V9.99996H24.9999V10.9997H24.0001V11.9999H22.9999V10.9997H22.0002V11.9999H22.9999V13H22.0002V13.9998H22.9999V14.9999H24.9999V13.9998H26V13H27.0001V13.9998H27.9999V16.0001H29V18H26V16.9998H27.0001V16.0001H24.9999V16.9998H22.9999V16.0001H22.0002V14.9999H21V16.0001H19.0001V16.9998H18V18H16.9998V14.9999H18V13.9998H19.0001V14.9999H19.9999V13.9998H21V13H19.9999V11.9999H21V10.9997H19.9999V9.99996H22.0002V8.99983ZM24.9999 10.9997H26V13H24.9999V13.9998H24.0001V11.9999H24.9999V10.9997ZM22.9999 16.9998V18H22.0002V16.9998H22.9999ZM22.0002 18V19.0001H19.9999V19.9999H16.9998V21H16.0001V18H16.9998V19.0001H18V18H19.0001V16.9998H21V18H22.0002ZM19.0001 13.9998V13H19.9999V13.9998H19.0001ZM19.0001 11.9999V10.9997H19.9999V11.9999H19.0001ZM22.0002 16.0001V16.9998H21V16.0001H22.0002ZM33.0002 27.9999H34V29H33.0002V27.9999ZM31 16.9998V18H30.0002V16.9998H31ZM19.9999 19.9999H21V21H19.9999V19.9999ZM26 18V19.0001H24.0001V18H26ZM32.0001 32.0001H33.0002V34H32.0001V32.0001ZM16.0001 33.0002V31H18V32.0001H19.0001V33.0002H18V34H16.9998V33.0002H16.0001ZM29 16.0001V14.9999H30.0002V13.9998H31V14.9999H33.0002V16.9998H34V18H32.0001V16.9998H31V16.0001H29ZM19.0001 32.0001V31H19.9999V30.0002H21V31H22.0002V30.0002H22.9999V31H24.9999V32.0001H24.0001V34H22.9999V33.0002H22.0002V34H19.9999V33.0002H21V32.0001H19.0001ZM21 30.0002V29H22.0002V30.0002H21ZM21 29H19.0001V27.9999H21V29ZM21 27.9999V27.0001H22.9999V29H22.0002V27.9999H21ZM21 27.0001H19.0001V26H19.9999V24.9999H21V27.0001ZM19.9999 24.9999H19.0001V22.9999H18V21H19.0001V22.0002H22.0002V19.9999H27.0001V19.0001H34V19.9999H33.0002V22.0002H32.0001V19.9999H31V21H30.0002V19.9999H27.9999V21H27.0001V22.0002H27.9999V21H29V22.9999H30.0002V27.9999H32.0001V29H30.0002V30.0002H32.0001V32.0001H30.0002V34H24.9999V32.0001H26V33.0002H27.0001V32.0001H29V31H27.0001V30.0002H26V31H24.9999V27.0001H24.0001V26H22.0002V24.0001H24.0001V24.9999H27.0001V24.0001H27.9999V22.9999H26V21H24.9999V22.0002H24.0001V21H22.9999V22.9999H22.0002V24.0001H19.9999V24.9999ZM33.0002 22.0002H34V24.9999H32.0001V22.9999H33.0002V22.0002ZM32.0001 24.9999V26H34V27.0001H33.0002V27.9999H32.0001V27.0001H31V24.9999H32.0001ZM30.0002 22.9999V22.0002H31V22.9999H30.0002ZM29 29V26H26V29H29ZM11.9999 24.0001H13V26H10.9997V24.9999H11.9999V24.0001ZM5.99978 22.9999V21H6.99991V22.9999H5.99978ZM13.9998 33.0002V34H13V33.0002H13.9998ZM13 26H13.9998V27.0001H13V26ZM13.9998 27.0001H16.0001V27.9999H18V30.0002H16.9998V29H16.0001V30.0002H14.9999V33.0002H13.9998V31H13V30.0002H13.9998V29H13V27.9999H13.9998V27.0001ZM6.99991 22.9999H8.99983V22.0002H9.99996V22.9999H11.9999V24.0001H6.99991V22.9999ZM27.9999 13.9998V13H29V13.9998H27.9999ZM33.0002 14.9999V13.9998H34V14.9999H33.0002ZM8.99983 16.9998H8.00005V14.9999H8.99983V16.9998ZM24.0001 8.99983V6.99991H24.9999V8.00005H26V8.99983H24.0001ZM8.99983 13.9998H8.00005V13H8.99983V13.9998ZM9.99996 22.0002V21H11.9999V22.0002H9.99996ZM8.99983 14.9999V13.9998H9.99996V13H11.9999V13.9998H10.9997V14.9999H11.9999V16.0001H9.99996V14.9999H8.99983ZM5.99978 22.9999V24.0001H5V22.9999H5.99978ZM27.9999 27.0001V27.9999H27.0001V27.0001H27.9999ZM5 11.9999V5H11.9999V11.9999H5ZM10.9997 5.99978H5.99978V10.9997H10.9997V5.99978ZM6.99991 9.99996V6.99991H9.99996V9.99996H6.99991ZM19.9999 5V5.99978H19.0001V5H19.9999ZM27.0001 11.9999V5H34V11.9999H27.0001ZM33.0002 5.99978H27.9999V10.9997H33.0002V5.99978ZM29 9.99996V6.99991H32.0001V9.99996H29ZM6.99991 16.9998V18H5.99978V16.9998H6.99991ZM5.99978 24.9999V26H5V24.9999H5.99978ZM8.00005 24.9999V26H6.99991V24.9999H8.00005ZM9.99996 24.9999V26H8.99983V24.9999H9.99996Z" />
</svg>
