<svg width="1552" height="317" viewBox="0 0 1552 317" fill="none" xmlns="http://www.w3.org/2000/svg">
<path d="M883.044 223.579H880.583C867.928 223.579 866.171 220.415 866.171 204.245V127.963H883.044C919.601 127.963 926.281 154.677 926.281 175.418C926.281 196.862 919.601 223.579 883.044 223.579ZM734.7 174.713V127.963H749.111C764.929 127.963 771.963 138.858 771.963 151.513C771.963 163.818 764.929 174.713 749.111 174.713H734.7ZM881.989 117.418H819.065V124.094C838.749 124.094 841.912 128.313 841.912 153.273V198.27C841.912 223.227 838.749 227.798 819.065 227.798C803.952 225.689 793.756 217.601 779.693 202.135L763.527 184.561C785.319 180.691 796.919 166.982 796.919 151.513C796.919 132.182 780.399 117.418 749.464 117.418H687.593V124.094C707.277 124.094 710.441 128.313 710.441 153.273V198.27C710.441 223.227 707.277 227.798 687.593 227.798V234.474H757.548V227.798C737.864 227.798 734.7 223.227 734.7 198.27V185.615H740.675L779.693 234.474H881.989C932.26 234.474 954.052 207.761 954.052 175.767C954.052 143.782 932.26 117.418 881.989 117.418Z" fill="#32373C"/>
<path d="M491.799 187.724L516.053 116.005C523.087 95.2679 519.923 89.2932 497.424 89.2932V82.2599H563.513V89.2932C541.367 89.2932 536.095 94.5652 527.305 120.228L487.228 240.452H482.66L446.801 130.421L410.245 240.452H405.673L366.655 120.228C358.219 94.5652 352.593 89.2932 332.204 89.2932V82.2599H410.245V89.2932C389.503 89.2932 383.877 94.2132 391.263 116.005L414.812 187.724L450.317 82.2599H456.999L491.799 187.724Z" fill="#32373C"/>
<path d="M611.313 123.745C578.974 123.745 567.723 152.919 567.723 175.767C567.723 198.971 578.974 227.797 611.313 227.797C644.009 227.797 655.255 198.971 655.255 175.767C655.255 152.919 644.009 123.745 611.313 123.745ZM611.313 239.045C572.647 239.045 541.006 210.571 541.006 175.767C541.006 141.319 572.647 112.842 611.313 112.842C649.983 112.842 681.619 141.319 681.619 175.767C681.619 210.571 649.983 239.045 611.313 239.045Z" fill="#32373C"/>
<path d="M1033.14 94.9147H1013.1V156.083H1033.14C1052.83 156.083 1061.97 142.375 1061.97 125.853C1061.97 108.981 1052.83 94.9147 1033.14 94.9147ZM1040.88 227.444V234.473H960.376V227.444C983.93 227.444 988.147 221.469 988.147 186.313V130.072C988.147 94.9147 983.93 89.2934 960.376 89.2934V82.2601H1033.14C1069.35 82.2601 1089.39 100.893 1089.39 125.853C1089.39 150.109 1069.35 169.091 1033.14 169.091H1013.1V186.313C1013.1 221.469 1017.32 227.444 1040.88 227.444Z" fill="#32373C"/>
<path d="M1144.58 174.713V127.963H1158.99C1174.81 127.963 1181.84 138.858 1181.84 151.513C1181.84 163.818 1174.81 174.713 1158.99 174.713H1144.58ZM1330.88 201.434L1329.13 207.761C1325.96 219.361 1322.09 223.579 1297.14 223.579H1292.21C1273.94 223.579 1270.77 219.361 1270.77 194.401V178.233C1298.19 178.233 1300.3 180.691 1300.3 198.971H1306.98V146.593H1300.3C1300.3 164.873 1298.19 167.33 1270.77 167.33V127.963H1290.1C1315.06 127.963 1318.93 132.182 1322.09 143.782L1323.85 150.458H1329.48L1327.02 117.418H1223.67V124.094C1243.35 124.094 1246.51 128.311 1246.51 153.273V198.27C1246.51 221.101 1243.83 226.853 1228.31 227.671C1213.56 225.421 1203.43 217.374 1189.57 202.135L1173.4 184.561C1195.2 180.691 1206.8 166.982 1206.8 151.513C1206.8 132.182 1190.28 117.418 1159.34 117.418H1097.47V124.094C1117.16 124.094 1120.32 128.311 1120.32 153.273V198.27C1120.32 223.226 1117.16 227.798 1097.47 227.798V234.474H1167.43V227.798C1147.74 227.798 1144.58 223.226 1144.58 198.27V185.615H1150.55L1189.57 234.474H1334.05L1336.16 201.434H1330.88Z" fill="#32373C"/>
<path d="M1402.24 239.045C1388.18 239.045 1375.88 231.662 1370.6 227.092C1368.85 228.852 1365.68 234.125 1364.98 239.045H1358.3V190.536H1365.33C1368.15 213.736 1384.31 227.445 1405.05 227.445C1416.3 227.445 1425.45 221.117 1425.45 210.572C1425.45 201.433 1417.36 194.4 1402.95 187.724L1382.91 178.233C1368.85 171.549 1358.3 159.949 1358.3 144.484C1358.3 127.61 1374.12 113.2 1395.92 113.2C1407.52 113.2 1417.36 117.418 1423.34 122.337C1425.09 120.93 1426.85 117.061 1427.91 112.842H1434.58V154.328H1427.2C1424.74 137.804 1415.6 124.094 1396.97 124.094C1387.13 124.094 1377.99 129.72 1377.99 138.509C1377.99 147.646 1385.37 152.568 1402.24 160.302L1421.57 169.793C1438.45 177.876 1445.13 190.888 1445.13 201.433C1445.13 223.58 1425.79 239.045 1402.24 239.045Z" fill="#32373C"/>
<path d="M1508.54 239.045C1494.48 239.045 1482.17 231.662 1476.9 227.092C1475.14 228.852 1471.98 234.125 1471.28 239.045H1464.6V190.536H1471.62C1474.44 213.736 1490.61 227.445 1511.35 227.445C1522.6 227.445 1531.74 221.117 1531.74 210.572C1531.74 201.433 1523.65 194.4 1509.24 187.724L1489.2 178.233C1475.14 171.549 1464.6 159.949 1464.6 144.484C1464.6 127.61 1480.41 113.2 1502.21 113.2C1513.81 113.2 1523.65 117.418 1529.63 122.337C1531.39 120.93 1533.14 117.061 1534.2 112.842H1540.88V154.328H1533.49C1531.03 137.804 1521.89 124.094 1503.26 124.094C1493.42 124.094 1484.28 129.72 1484.28 138.509C1484.28 147.646 1491.66 152.568 1508.54 160.302L1527.87 169.793C1544.75 177.876 1551.42 190.888 1551.42 201.433C1551.42 223.58 1532.09 239.045 1508.54 239.045Z" fill="#32373C"/>
<path d="M158.192 5.95481e-05C70.8253 5.95481e-05 0 70.8254 0 158.192C0 245.559 70.8253 316.384 158.192 316.384C245.559 316.384 316.384 245.559 316.384 158.192C316.384 70.8254 245.559 5.95481e-05 158.192 5.95481e-05ZM158.192 9.49206C178.271 9.49206 197.744 13.4214 216.071 21.1734C224.879 24.8987 233.376 29.5107 241.325 34.8814C249.201 40.2027 256.608 46.3134 263.339 53.0454C270.071 59.7761 276.181 67.1827 281.503 75.0587C286.873 83.0081 291.485 91.5054 295.211 100.313C302.963 118.64 306.892 138.113 306.892 158.192C306.892 178.271 302.963 197.744 295.211 216.071C291.485 224.879 286.873 233.376 281.503 241.325C276.181 249.201 270.071 256.608 263.339 263.339C256.608 270.071 249.201 276.181 241.325 281.503C233.376 286.873 224.879 291.485 216.071 295.211C197.744 302.963 178.271 306.892 158.192 306.892C138.113 306.892 118.64 302.963 100.315 295.211C91.5053 291.485 83.008 286.873 75.0587 281.503C67.1827 276.181 59.776 270.071 53.0453 263.339C46.3133 256.608 40.2027 249.201 34.8813 241.325C29.512 233.376 24.8987 224.879 21.1733 216.071C13.4213 197.744 9.49199 178.271 9.49199 158.192C9.49199 138.113 13.4213 118.64 21.1733 100.313C24.8987 91.5054 29.512 83.0081 34.8813 75.0587C40.2027 67.1827 46.3133 59.7761 53.0453 53.0454C59.776 46.3134 67.1827 40.2027 75.0587 34.8814C83.008 29.5107 91.5053 24.8987 100.315 21.1734C118.64 13.4214 138.113 9.49206 158.192 9.49206Z" fill="#32373C"/>
<path d="M273.874 94.9466C274.44 99.1452 274.761 103.649 274.761 108.501C274.761 121.873 272.256 136.911 264.733 155.716L224.47 272.129C263.662 249.28 290.018 206.82 290.018 158.188C290.018 135.268 284.162 113.721 273.874 94.9466ZM160.508 169.719L120.949 284.648C132.764 288.123 145.253 290.019 158.192 290.019C173.544 290.019 188.27 287.369 201.972 282.545C201.618 281.981 201.293 281.383 201.025 280.728L160.508 169.719ZM247.186 151.539C247.186 135.241 241.332 123.963 236.318 115.184C229.636 104.32 223.369 95.1292 223.369 84.2652C223.369 72.1492 232.557 60.8692 245.506 60.8692C246.092 60.8692 246.645 60.9399 247.213 60.9759C223.76 39.4866 192.512 26.3652 158.192 26.3652C112.134 26.3652 71.6198 49.9972 48.0464 85.7812C51.1424 85.8786 54.0584 85.9412 56.5318 85.9412C70.3171 85.9412 91.6664 84.2652 91.6664 84.2652C98.7691 83.8492 99.6091 94.2892 92.5091 95.1292C92.5091 95.1292 85.3651 95.9652 77.4224 96.3812L125.426 239.173L154.28 152.653L133.742 96.3812C126.64 95.9652 119.916 95.1292 119.916 95.1292C112.809 94.7092 113.642 83.8492 120.752 84.2652C120.752 84.2652 142.517 85.9412 155.47 85.9412C169.256 85.9412 190.609 84.2652 190.609 84.2652C197.714 83.8492 198.55 94.2892 191.448 95.1292C191.448 95.1292 184.297 95.9652 176.362 96.3812L224.002 238.087L237.602 194.993C243.644 176.161 247.186 162.819 247.186 151.539ZM26.3651 158.188C26.3651 210.365 56.6865 255.46 100.665 276.825L37.7798 104.539C30.4651 120.932 26.3651 139.075 26.3651 158.188Z" fill="#32373C"/>
</svg>
