<?xml version="1.0" encoding="UTF-8" standalone="no"?>
<!DOCTYPE svg PUBLIC "-//W3C//DTD SVG 1.1//EN" "http://www.w3.org/Graphics/SVG/1.1/DTD/svg11.dtd">
<svg width="100%" height="100%" viewBox="0 0 100 109" version="1.1" xmlns="http://www.w3.org/2000/svg" xmlns:xlink="http://www.w3.org/1999/xlink" xml:space="preserve" xmlns:serif="http://www.serif.com/" style="fill-rule:evenodd;clip-rule:evenodd;stroke-linejoin:round;stroke-miterlimit:2;">
    <rect id="Tavola-da-disegno1" serif:id="Tavola da disegno1" x="0" y="0" width="100" height="109" style="fill:none;"/>
    <g id="Tavola-da-disegno11" serif:id="Tavola da disegno1">
        <g transform="matrix(0.96432,0,0,0.96432,-18.7078,0.160559)">
            <path d="M122.9,49.9C122.7,48 122.4,45.8 121.8,43.4C121.2,41 120.2,38.4 118.9,35.6C117.5,32.9 115.8,30 113.5,27.3C112.6,26.2 111.6,25.2 110.6,24.1C112.2,17.8 108.7,12.3 108.7,12.3C102.6,11.9 98.8,14.2 97.4,15.2C97.2,15.1 96.9,15 96.7,14.9C95.7,14.5 94.6,14.1 93.5,13.7C92.4,13.4 91.3,13 90.2,12.8C89.1,12.5 87.9,12.3 86.7,12.1C86.5,12.1 86.3,12 86.1,12C83.5,3.6 75.9,0 75.9,0C67.2,5.6 65.5,13.1 65.5,13.1C65.5,13.1 65.5,13.3 65.4,13.5C64.9,13.6 64.5,13.8 64,13.9C63.4,14.1 62.7,14.3 62.1,14.6C61.5,14.9 60.8,15.1 60.2,15.4C58.9,16 57.7,16.6 56.4,17.3C55.2,18 54,18.7 52.9,19.5C52.7,19.4 52.6,19.3 52.6,19.3C40.9,14.8 30.5,20.2 30.5,20.2C29.6,32.7 35.2,40.5 36.3,41.9C36,42.7 35.8,43.4 35.5,44.2C34.6,47 34,49.9 33.6,52.9C33.5,53.3 33.5,53.8 33.4,54.2C22.6,59.5 19.4,70.5 19.4,70.5C28.4,80.9 39,81.5 39,81.5C40.3,83.9 41.9,86.2 43.6,88.3C44.3,89.2 45.1,90 45.9,90.9C42.6,100.3 46.4,108.2 46.4,108.2C56.5,108.6 63.1,103.8 64.5,102.7C65.5,103 66.5,103.3 67.5,103.6C70.6,104.4 73.8,104.9 76.9,105L81,105C85.7,111.8 94.1,112.7 94.1,112.7C100,106.4 100.4,100.3 100.4,98.9L100.4,98.3C101.6,97.4 102.8,96.5 104,95.5C106.4,93.4 108.4,90.9 110.2,88.3C110.4,88.1 110.5,87.8 110.7,87.6C117.4,88 122.1,83.4 122.1,83.4C121,76.4 117,73 116.2,72.4L115.9,72.1C115.9,71.7 116,71.3 116,70.8C116.1,70 116.1,69.3 116.1,68.5L116.1,67.5L116.1,67.3L116.1,65.6C116.1,65.4 116.1,65.2 116,65L115.8,63.8C115.7,63 115.5,62.3 115.4,61.5C114.7,58.5 113.5,55.6 112,53.1C110.4,50.5 108.5,48.3 106.3,46.3C104.1,44.4 101.7,42.8 99.1,41.7C96.5,40.5 93.9,39.8 91.2,39.5C89.9,39.3 88.5,39.3 87.2,39.3L85.2,39.3C84.5,39.4 83.8,39.5 83.2,39.6C80.5,40.1 78,41.1 75.8,42.4C73.6,43.7 71.7,45.4 70.1,47.3C68.5,49.2 67.3,51.2 66.5,53.4C65.7,55.5 65.2,57.8 65.1,59.9L65.1,62.3C65.1,62.6 65.1,62.8 65.2,63.1C65.3,64.2 65.5,65.2 65.8,66.2C66.4,68.2 67.3,70 68.5,71.6C69.7,73.2 71,74.4 72.5,75.4C74,76.4 75.5,77.1 77.1,77.6C78.7,78.1 80.2,78.3 81.6,78.2L83.7,78.2C83.9,78.2 84.1,78.1 84.2,78.1C84.4,78.1 84.5,78 84.7,78C85,77.9 85.4,77.8 85.7,77.7C86.3,77.5 86.9,77.2 87.5,77C88.1,76.7 88.6,76.4 89,76.1C89.1,76 89.3,75.9 89.4,75.8C89.9,75.4 90,74.7 89.6,74.2C89.2,73.8 88.6,73.7 88.1,73.9C88,74 87.9,74 87.7,74.1C87.3,74.3 86.8,74.5 86.4,74.6C85.9,74.7 85.4,74.9 84.9,75C84.6,75 84.4,75.1 84.1,75.1L82.4,75.1C82.4,75.1 82.3,75.1 82.4,75.1L82,75.1C81.9,75.1 81.7,75.1 81.6,75C80.5,74.8 79.3,74.5 78.2,74C77.1,73.5 76,72.8 75.1,71.9C74.1,71 73.3,70 72.6,68.8C71.9,67.6 71.5,66.3 71.3,65C71.2,64.3 71.1,63.6 71.2,62.9L71.2,62.3C71.2,62.4 71.2,62.3 71.2,62.3L71.2,61.8C71.2,61.4 71.3,61.1 71.4,60.7C71.9,57.7 73.4,54.8 75.7,52.6C76.3,52 76.9,51.5 77.6,51.1C78.3,50.6 79,50.2 79.7,49.9C80.4,49.6 81.2,49.3 82,49.1C82.8,48.9 83.6,48.7 84.4,48.7C84.8,48.7 85.2,48.6 85.6,48.6L86.4,48.6C86.5,48.6 86.4,48.6 86.4,48.6L86.8,48.6C87.7,48.7 88.6,48.8 89.4,49C91.1,49.4 92.8,50 94.4,50.9C97.6,52.7 100.3,55.4 101.9,58.7C102.7,60.3 103.3,62.1 103.6,64C103.7,64.5 103.7,64.9 103.8,65.4L103.8,68C103.8,68.5 103.7,69 103.7,69.5C103.6,70 103.6,70.5 103.5,71C103.4,71.5 103.3,72 103.2,72.5C103,73.5 102.6,74.4 102.3,75.4C101.6,77.3 100.6,79.1 99.4,80.7C97,84 93.7,86.7 90,88.4C88.1,89.2 86.2,89.9 84.2,90.2C83.2,90.4 82.2,90.5 81.2,90.5L79.7,90.5C79.8,90.5 79.7,90.5 79.7,90.5L79.6,90.5C79.1,90.5 78.5,90.5 78,90.4C75.8,90.2 73.7,89.8 71.6,89.2C69.5,88.6 67.5,87.8 65.6,86.8C61.8,84.8 58.4,81.9 55.7,78.6C54.4,76.9 53.2,75.1 52.2,73.2C51.2,71.3 50.5,69.3 49.9,67.3C49.3,65.3 49,63.2 48.9,61.1L48.9,58C48.9,57 49,55.9 49.2,54.8C49.3,53.7 49.5,52.7 49.7,51.6C49.9,50.5 50.2,49.5 50.5,48.4C51.1,46.3 51.8,44.3 52.7,42.4C54.5,38.6 56.8,35.2 59.5,32.5C60.2,31.8 60.9,31.2 61.7,30.6C62,30.3 62.7,29.7 63.5,29.2C64.3,28.7 65.1,28.2 66,27.8C66.4,27.6 66.8,27.4 67.3,27.2C67.5,27.1 67.7,27 68,26.9C68.2,26.8 68.4,26.7 68.7,26.6C69.6,26.2 70.5,25.9 71.4,25.6C71.6,25.5 71.9,25.5 72.1,25.4C72.3,25.3 72.6,25.3 72.8,25.2C73.3,25.1 73.7,25 74.2,24.8C74.4,24.7 74.7,24.7 74.9,24.6C75.1,24.6 75.4,24.5 75.6,24.5C75.8,24.5 76.1,24.4 76.3,24.4L77.1,24.2C77.3,24.2 77.6,24.1 77.8,24.1C78.1,24.1 78.3,24 78.6,24C78.8,24 79.2,23.9 79.4,23.9C79.6,23.9 79.7,23.9 79.9,23.8L80.6,23.8C80.9,23.8 81.1,23.8 81.4,23.7L81.8,23.7C81.8,23.7 81.9,23.7 81.8,23.7L85.5,23.7C87.3,23.8 89.1,24 90.8,24.3C94.2,24.9 97.5,26 100.4,27.5C103.3,28.9 106,30.7 108.2,32.6C108.3,32.7 108.5,32.8 108.6,33C108.7,33.1 108.9,33.2 109,33.4C109.3,33.6 109.5,33.9 109.8,34.1C110.1,34.3 110.3,34.6 110.6,34.8C110.8,35.1 111.1,35.3 111.3,35.6C112.3,36.6 113.2,37.7 114,38.7C115.6,40.8 116.9,42.9 117.9,44.9C118,45 118,45.1 118.1,45.3C118.2,45.4 118.2,45.5 118.3,45.7C118.4,45.9 118.5,46.2 118.7,46.4C118.8,46.6 118.9,46.9 119,47.1C119.1,47.3 119.2,47.6 119.3,47.8C119.7,48.7 120,49.6 120.3,50.5C120.8,51.9 121.1,53.1 121.4,54.1C121.5,54.5 121.9,54.8 122.3,54.8C122.8,54.8 123.1,54.4 123.1,53.9C123,52.7 123,51.4 122.9,49.9Z" style="fill:url(#_Linear1);fill-rule:nonzero;"/>
        </g>
    </g>
    <defs>
        <linearGradient id="_Linear1" x1="0" y1="0" x2="1" y2="0" gradientUnits="userSpaceOnUse" gradientTransform="matrix(6.29788e-15,-102.852,102.852,6.29788e-15,71.25,138.111)"><stop offset="0" style="stop-color:rgb(252,238,31);stop-opacity:1"/><stop offset="1" style="stop-color:rgb(241,91,42);stop-opacity:1"/></linearGradient>
    </defs>
</svg>
