<svg width="154" height="32" viewBox="0 0 154 32" fill="none" xmlns="http://www.w3.org/2000/svg">
    <g clip-path="url(#clip0_1452_1919)">
        <path d="M44.6906 5.74174L37.718 23.2207H40.8136L42.1906 19.7226H49.5777L50.9309 23.2207H54.0993L47.1386 5.74174H44.6906ZM43.2646 16.9315L45.8849 10.2396L48.4814 16.9315H43.2646Z" fill="currentColor"></path>
        <path d="M69.9458 10.764C69.108 10.764 68.3371 10.9571 67.63 11.3433C66.923 11.7295 66.3986 12.2524 66.057 12.9089C65.3336 11.4785 64.0739 10.764 62.278 10.764C61.5546 10.764 60.858 10.9199 60.1881 11.2334C59.5181 11.5468 58.9759 12.0489 58.5615 12.7381V11.0195H55.7942V23.2207H58.5615V16.3818C58.5615 15.4074 58.8274 14.6721 59.3592 14.176C59.891 13.6799 60.5312 13.4318 61.2784 13.4318C62.1072 13.4318 62.7608 13.6932 63.2406 14.2176C63.7204 14.7419 63.9595 15.4624 63.9595 16.3804V23.2193H66.7507V16.3804C66.7507 15.4059 67.0151 14.6706 67.5424 14.1745C68.0712 13.6784 68.7129 13.4303 69.469 13.4303C70.2889 13.4303 70.9351 13.6917 71.4075 14.2161C71.8783 14.7404 72.1145 15.4609 72.1145 16.3789V23.2178H74.9428V15.758C74.9428 14.2384 74.4823 13.0248 73.5599 12.1187C72.6374 11.217 71.4327 10.764 69.9458 10.764Z" fill="currentColor"></path>
        <path d="M87.707 11.6166C86.8173 11.0477 85.8399 10.764 84.7748 10.764C83.8004 10.764 82.9418 10.9749 82.2035 11.3982C81.4638 11.8216 80.8696 12.4262 80.424 13.2149V11.0209H77.6567V27.4884H80.424V21.0283C80.8711 21.8081 81.4638 22.4097 82.2035 22.8316C82.9433 23.2549 83.8004 23.4658 84.7748 23.4658C86.3924 23.4658 87.765 22.8494 88.8954 21.6195C90.0243 20.388 90.5888 18.8907 90.5888 17.1275C90.5888 15.9734 90.3303 14.9098 89.8149 13.9339C89.2994 12.9579 88.5968 12.1855 87.707 11.6166ZM86.7861 19.7404C86.0716 20.4593 85.1982 20.8188 84.1658 20.8188C83.0933 20.8188 82.2006 20.4653 81.4905 19.7582C80.779 19.0512 80.424 18.1733 80.424 17.1246C80.424 16.0595 80.779 15.1742 81.4905 14.4671C82.2021 13.7601 83.0933 13.4065 84.1658 13.4065C85.1982 13.4065 86.0716 13.766 86.7861 14.485C87.5021 15.2039 87.8586 16.0833 87.8586 17.1246C87.86 18.151 87.5021 19.0214 86.7861 19.7404Z" fill="currentColor"></path>
        <path d="M95.5516 5.74174H92.7842V23.2207H95.5516V5.74174Z" fill="currentColor"></path>
        <path d="M101.006 11.0195H98.2387V23.2207H101.006V11.0195Z" fill="currentColor"></path>
        <path d="M99.6409 5.35107C99.1537 5.35107 98.7348 5.52635 98.3858 5.87543C98.0367 6.2245 97.8614 6.63894 97.8614 7.11873C97.8614 7.61486 98.0352 8.03672 98.3858 8.38728C98.7348 8.73636 99.1537 8.91164 99.6409 8.91164C100.128 8.91164 100.55 8.73636 100.904 8.38728C101.257 8.03821 101.434 7.61486 101.434 7.11873C101.434 6.63894 101.257 6.2245 100.904 5.87543C100.549 5.52635 100.128 5.35107 99.6409 5.35107Z" fill="currentColor"></path>
        <path d="M107.881 7.74112H105.089V11.0195H102.774V13.665H105.089V18.6263C105.089 20.1459 105.495 21.3164 106.309 22.1364C107.122 22.9578 108.215 23.3678 109.587 23.3678C110.156 23.3678 110.657 23.3188 111.086 23.2207V20.6495C110.835 20.7148 110.534 20.7475 110.185 20.7475C109.469 20.7475 108.907 20.5707 108.497 20.2172C108.087 19.8637 107.881 19.317 107.881 18.5773V13.665H111.086V11.0195H107.881V7.74112Z" fill="currentColor"></path>
        <path d="M121.763 17.6266C121.763 18.5847 121.49 19.3527 120.94 19.9305C120.392 20.5069 119.667 20.7965 118.764 20.7965C117.87 20.7965 117.151 20.5084 116.606 19.9305C116.061 19.3542 115.789 18.5862 115.789 17.6266V11.0195H113.022V17.9549C113.022 19.6691 113.473 21.0164 114.375 21.9953C115.277 22.9742 116.515 23.4644 118.093 23.4644C118.898 23.4644 119.612 23.2772 120.238 22.9029C120.863 22.53 121.371 21.9938 121.762 21.2941V23.2207H124.553V11.0195H121.762V17.6266H121.763Z" fill="currentColor"></path>
        <path d="M136.849 13.1644C136.402 12.392 135.814 11.7993 135.082 11.3849C134.351 10.9704 133.501 10.764 132.534 10.764C131.469 10.764 130.49 11.0447 129.598 11.6047C128.703 12.1647 127.996 12.9327 127.476 13.9086C126.956 14.8845 126.696 15.9481 126.696 17.1023C126.696 18.2564 126.956 19.323 127.476 20.3019C127.996 21.2808 128.703 22.0532 129.598 22.6177C130.492 23.1821 131.471 23.4644 132.534 23.4644C133.501 23.4644 134.351 23.2594 135.082 22.8479C135.813 22.4379 136.402 21.8467 136.849 21.0743V23.2193H139.654V5.74174H136.849V13.1644ZM135.784 19.7538C135.073 20.4653 134.189 20.8203 133.133 20.8203C132.1 20.8203 131.227 20.4608 130.513 19.7419C129.797 19.0229 129.44 18.1436 129.44 17.1023C129.44 16.0788 129.798 15.2069 130.513 14.4879C131.227 13.769 132.1 13.4095 133.133 13.4095C134.189 13.4095 135.073 13.763 135.784 14.4701C136.496 15.1772 136.851 16.055 136.851 17.1038C136.849 18.1584 136.494 19.0422 135.784 19.7538Z" fill="currentColor"></path>
        <path d="M154 16.8587C154 15.6971 153.731 14.6469 153.195 13.7081C152.659 12.7693 151.937 12.0444 151.031 11.5319C150.125 11.0195 149.126 10.764 148.038 10.764C146.883 10.764 145.826 11.0403 144.862 11.5928C143.899 12.1454 143.139 12.903 142.582 13.8655C142.025 14.8281 141.747 15.8917 141.747 17.0533C141.747 18.2475 142.025 19.3364 142.582 20.3197C143.139 21.3031 143.901 22.0725 144.868 22.6295C145.835 23.1866 146.907 23.4644 148.087 23.4644C149.59 23.4644 150.869 23.0737 151.926 22.2938C152.983 21.514 153.624 20.4816 153.853 19.1982H151.062C150.94 19.7181 150.609 20.1415 150.068 20.4653C149.527 20.7906 148.884 20.9525 148.136 20.9525C147.169 20.9525 146.377 20.6925 145.759 20.1726C145.141 19.6528 144.743 18.9383 144.565 18.0277H153.926C153.976 17.8093 154 17.4187 154 16.8587ZM144.639 15.651C144.842 14.9024 145.227 14.3216 145.798 13.9071C146.367 13.4927 147.06 13.2847 147.882 13.2847C148.711 13.2847 149.403 13.5031 149.96 13.9368C150.517 14.3721 150.855 14.9425 150.977 15.6495H144.639V15.651Z" fill="currentColor"></path>
        <path d="M16.043 -0.0427246C24.9029 -0.0425226 32.085 7.14029 32.085 16.0002C32.0848 24.86 24.9028 32.042 16.043 32.0422C7.18301 32.0422 0.000202047 24.8602 0 16.0002C0 7.14016 7.18289 -0.0427246 16.043 -0.0427246ZM13.917 4.85864C11.9326 4.8649 10.1482 8.04782 8.6084 14.3098C7.51328 14.2969 6.52019 14.2778 5.58594 14.2649H5.27051C5.21261 14.2673 5.15457 14.2712 5.09668 14.2776C4.63301 14.3615 4.27234 14.7354 4.20117 15.2053C4.11099 15.8109 4.53021 16.3778 5.13574 16.468L5.14844 16.4807H8.1123C7.84175 17.7304 7.59637 18.9743 7.39648 20.1663L7.30664 20.6946V20.72C7.30664 20.9714 7.43567 21.204 7.64844 21.3391C7.98989 21.5577 8.447 21.4547 8.66602 21.1135L8.68555 21.1321L10.1348 16.4875H17.1182C17.653 18.5105 18.2071 20.5915 18.9414 22.55C19.3345 23.6003 20.2494 26.0474 21.7822 26.0608H21.8018C24.1726 26.0608 25.1007 22.2282 25.7129 19.6897C25.8484 19.142 25.9577 18.6713 26.0674 18.3235L26.1123 18.1819C26.1186 18.1499 26.125 18.117 26.125 18.0784C26.1248 17.9302 26.0285 17.7949 25.8936 17.7434C25.7067 17.6662 25.4945 17.7628 25.417 17.9495L25.3652 18.092C25.1654 18.6526 24.979 19.181 24.8115 19.6448L24.7979 19.676C23.7672 22.5818 23.2966 23.9094 22.3818 23.9094H22.3184C21.1393 23.9094 20.0367 19.1288 19.6182 17.3313C19.5471 17.0221 19.4771 16.7318 19.4189 16.4807H27.0215C27.1631 16.4807 27.2988 16.4484 27.4209 16.384L27.4521 16.3645L27.5107 16.3264C27.5299 16.3135 27.5492 16.3002 27.5684 16.2874C27.723 16.1585 27.833 15.9843 27.8779 15.804C27.9745 15.347 27.672 14.8963 27.2148 14.8059H27.208L27.1953 14.7991H27.1826C27.1378 14.7928 27.0986 14.7864 27.0537 14.7864L26.9375 14.7737C24.2511 14.5804 21.4806 14.503 18.8906 14.4514L18.8838 14.4319C17.6212 9.69674 16.0431 4.85866 13.917 4.85864ZM13.833 6.99731C13.949 6.99731 14.0456 7.06203 14.1357 7.17798C14.3544 7.51925 14.7414 8.29872 15.3145 10.0315C15.7076 11.2234 16.1331 12.6926 16.584 14.4065C14.8769 14.3807 13.1439 14.3615 11.4688 14.342L10.6182 14.3352C11.5782 10.5858 12.7446 7.7444 13.6016 7.07446C13.6725 7.0297 13.7496 7.00393 13.833 6.99731Z" fill="currentColor"></path>
    </g>
    <defs>
        <clipPath id="clip0_1452_1919">
            <rect width="154" height="32" fill="white"></rect>
        </clipPath>
    </defs>
</svg>
