<?xml version="1.0" encoding="UTF-8" standalone="no"?>
<!DOCTYPE svg PUBLIC "-//W3C//DTD SVG 1.1//EN" "http://www.w3.org/Graphics/SVG/1.1/DTD/svg11.dtd">
<svg width="100%" height="100%" viewBox="0 0 220 220" version="1.1" xmlns="http://www.w3.org/2000/svg" xmlns:xlink="http://www.w3.org/1999/xlink" xml:space="preserve" xmlns:serif="http://www.serif.com/" style="fill-rule:evenodd;clip-rule:evenodd;stroke-linejoin:round;stroke-miterlimit:2;">
    <rect id="Tavola-da-disegno1" serif:id="Tavola da disegno1" x="0" y="0" width="220" height="220" style="fill:none;"/>
    <clipPath id="_clip1">
        <rect id="Tavola-da-disegno11" serif:id="Tavola da disegno1" x="0" y="0" width="220" height="220"/>
    </clipPath>
    <g clip-path="url(#_clip1)">
        <g transform="matrix(1.00269,0,0,1.00269,-65.2049,-60.4621)">
            <path d="M284.44,115.152L284.44,224.857C284.44,255.131 259.861,279.71 229.588,279.71L119.882,279.71C89.609,279.71 65.03,255.131 65.03,224.857L65.03,115.152C65.03,84.879 89.609,60.3 119.882,60.3L229.588,60.3C259.861,60.3 284.44,84.879 284.44,115.152Z" style="fill:rgb(246,243,237);"/>
            <g>
                <path d="M173.18,211.91C178.4,211.91 183.4,213.98 187.09,217.67C190.78,221.36 192.85,226.36 192.85,231.58C192.85,236.8 190.78,241.8 187.09,245.49C183.4,249.18 178.4,251.25 173.18,251.25L157.58,251.25L157.58,211.91L173.18,211.91Z" style="fill:rgb(46,95,122);fill-rule:nonzero;"/>
                <path d="M173.18,211.91C178.4,211.91 183.4,213.98 187.09,217.67C190.78,221.36 192.85,226.36 192.85,231.58C192.85,236.8 190.78,241.8 187.09,245.49C183.4,249.18 178.4,251.25 173.18,251.25L157.58,251.25L157.58,211.91L173.18,211.91Z" style="fill:rgb(46,95,122);fill-rule:nonzero;"/>
                <path d="M173.18,211.91C178.4,211.91 183.4,213.98 187.09,217.67C190.78,221.36 192.85,226.36 192.85,231.58C192.85,236.8 190.78,241.8 187.09,245.49C183.4,249.18 178.4,251.25 173.18,251.25L157.58,251.25L157.58,211.91L173.18,211.91Z" style="fill:rgb(46,95,122);fill-rule:nonzero;"/>
                <path d="M203.26,200.73C206.95,197.04 211.95,194.97 217.17,194.97C222.39,194.97 227.39,197.04 231.08,200.73C234.77,204.42 236.84,209.42 236.84,214.64C236.84,219.86 234.77,224.86 231.08,228.55L220.05,239.58L192.23,211.76L203.26,200.73Z" style="fill:rgb(178,82,149);fill-rule:nonzero;"/>
                <path d="M216.64,171.56C216.64,166.34 218.71,161.34 222.4,157.65C226.09,153.96 231.09,151.89 236.31,151.89C241.53,151.89 246.53,153.96 250.22,157.65C253.91,161.34 255.98,166.34 255.98,171.56L255.98,187.16L216.64,187.16L216.64,171.56Z" style="fill:rgb(46,95,122);fill-rule:nonzero;"/>
                <path d="M205.47,141.47C201.78,137.78 199.71,132.78 199.71,127.56C199.71,122.34 201.78,117.34 205.47,113.65C209.16,109.96 214.16,107.89 219.38,107.89C224.6,107.89 229.6,109.96 233.29,113.65L244.32,124.68L216.5,152.5L205.47,141.47Z" style="fill:rgb(178,82,149);fill-rule:nonzero;"/>
                <path d="M176.29,128.09C171.07,128.09 166.07,126.02 162.38,122.33C158.69,118.64 156.62,113.64 156.62,108.42C156.62,103.2 158.69,98.2 162.38,94.51C166.07,90.82 171.07,88.75 176.29,88.75L191.89,88.75L191.89,128.09L176.29,128.09Z" style="fill:rgb(46,95,122);fill-rule:nonzero;"/>
                <path d="M146.2,139.27C142.51,142.96 137.51,145.03 132.29,145.03C127.07,145.03 122.07,142.96 118.38,139.27C114.69,135.58 112.62,130.58 112.62,125.36C112.62,120.14 114.69,115.14 118.38,111.45L129.41,100.42L157.23,128.24L146.2,139.27Z" style="fill:rgb(178,82,149);fill-rule:nonzero;"/>
                <path d="M132.83,168.44C132.83,173.66 130.76,178.66 127.07,182.35C123.38,186.04 118.38,188.11 113.16,188.11C107.94,188.11 102.94,186.04 99.25,182.35C95.56,178.66 93.49,173.66 93.49,168.44L93.49,152.84L132.83,152.84L132.83,168.44Z" style="fill:rgb(46,95,122);fill-rule:nonzero;"/>
                <path d="M144,198.53C147.69,202.22 149.76,207.22 149.76,212.44C149.76,217.66 147.69,222.66 144,226.35C140.31,230.04 135.31,232.11 130.09,232.11C124.87,232.11 119.87,230.04 116.18,226.35L105.15,215.32L132.97,187.5L144,198.53Z" style="fill:rgb(178,82,149);fill-rule:nonzero;"/>
            </g>
        </g>
    </g>
</svg>
