<?xml version="1.0" encoding="UTF-8" standalone="no"?>
<!DOCTYPE svg PUBLIC "-//W3C//DTD SVG 1.1//EN" "http://www.w3.org/Graphics/SVG/1.1/DTD/svg11.dtd">
<svg width="100%" height="100%" viewBox="0 0 32 46" version="1.1" xmlns="http://www.w3.org/2000/svg" xmlns:xlink="http://www.w3.org/1999/xlink" xml:space="preserve" xmlns:serif="http://www.serif.com/" style="fill-rule:evenodd;clip-rule:evenodd;stroke-linejoin:round;stroke-miterlimit:2;">
    <rect id="Tavola-da-disegno1" serif:id="Tavola da disegno1" x="0" y="0" width="32" height="46" style="fill:none;"/>
    <g id="Tavola-da-disegno11" serif:id="Tavola da disegno1">
        <g transform="matrix(1,0,0,1,0.435642,0.0724572)">
            <path d="M9.201,24.113C9.046,23.957 8.923,23.772 8.839,23.569C8.755,23.366 8.712,23.148 8.712,22.927C8.712,22.707 8.755,22.489 8.839,22.286C8.923,22.082 9.046,21.898 9.201,21.742L19.937,10.953L14.876,5.865C14.82,5.808 14.757,5.759 14.688,5.719L9.995,1.004C9.881,0.888 9.744,0.795 9.594,0.732C9.443,0.669 9.282,0.636 9.119,0.636L9.119,20.572L8.567,21.13C8.329,21.369 8.14,21.654 8.012,21.966C7.883,22.279 7.816,22.614 7.816,22.952C7.816,23.291 7.883,23.626 8.012,23.938C8.14,24.251 8.329,24.535 8.567,24.774L9.119,25.329L9.119,45.219C9.282,45.219 9.443,45.187 9.593,45.125C9.744,45.062 9.88,44.971 9.995,44.855L14.776,40.049C14.811,40.023 14.843,39.995 14.874,39.965L19.923,34.895L9.201,24.113Z" style="fill:rgb(66,36,127);fill-rule:nonzero;"/>
            <path d="M9.119,25.326L8.567,24.77C8.329,24.531 8.14,24.247 8.012,23.935C7.883,23.622 7.816,23.287 7.816,22.948C7.816,22.61 7.883,22.275 8.012,21.962C8.14,21.65 8.329,21.366 8.567,21.127L9.119,20.572L9.119,0.64C8.797,0.644 8.49,0.775 8.262,1.004L0.467,8.839L0.463,8.843C0.316,8.991 0.199,9.166 0.12,9.358C0.041,9.551 -0,9.757 0,9.965L0,35.893C-0,36.102 0.041,36.308 0.12,36.501C0.199,36.693 0.316,36.868 0.463,37.015L0.467,37.02L8.262,44.855C8.49,45.084 8.797,45.214 9.119,45.219L9.119,25.326Z" style="fill:rgb(100,54,191);fill-rule:nonzero;"/>
            <path d="M31.129,10.404L31.129,0.214C31.129,0.172 31.117,0.131 31.094,0.096C31.072,0.061 31.039,0.033 31,0.017C30.962,0 30.919,-0.004 30.878,0.004C30.837,0.012 30.799,0.032 30.77,0.061L9.201,21.742C9.046,21.898 8.923,22.082 8.839,22.286C8.755,22.489 8.712,22.707 8.712,22.927C8.712,23.148 8.755,23.366 8.839,23.569C8.923,23.772 9.046,23.957 9.201,24.113L30.77,45.793C30.799,45.822 30.836,45.843 30.877,45.851C30.918,45.859 30.96,45.855 30.999,45.839C31.037,45.823 31.07,45.796 31.093,45.761C31.117,45.726 31.129,45.685 31.129,45.643L31.129,35.454C31.129,34.89 30.905,34.348 30.508,33.949L20.723,24.113C20.568,23.957 20.445,23.772 20.361,23.569C20.277,23.366 20.234,23.148 20.234,22.927C20.234,22.707 20.277,22.489 20.361,22.286C20.445,22.082 20.568,21.898 20.723,21.742L30.508,11.911C30.905,11.511 31.129,10.969 31.129,10.404Z" style="fill:rgb(228,58,92);fill-rule:nonzero;"/>
        </g>
    </g>
</svg>
