<?xml version="1.0" encoding="UTF-8" standalone="no"?>
<!DOCTYPE svg PUBLIC "-//W3C//DTD SVG 1.1//EN" "http://www.w3.org/Graphics/SVG/1.1/DTD/svg11.dtd">
<svg width="100%" height="100%" viewBox="0 0 35 35" version="1.1" xmlns="http://www.w3.org/2000/svg" xmlns:xlink="http://www.w3.org/1999/xlink" xml:space="preserve" xmlns:serif="http://www.serif.com/" style="fill-rule:evenodd;clip-rule:evenodd;stroke-linejoin:round;stroke-miterlimit:2;">
    <rect id="Tavola-da-disegno1" serif:id="Tavola da disegno1" x="0" y="0" width="35" height="35" style="fill:none;"/>
    <g id="Tavola-da-disegno11" serif:id="Tavola da disegno1">
        <g transform="matrix(1,0,0,1,0.335,-0.118477)">
            <path d="M27.975,24.524L34.33,30.805L30.537,34.553L24.181,28.273L27.975,24.524Z" style="fill:rgb(29,190,122);fill-rule:nonzero;"/>
            <path d="M15.049,26.944C14.498,26.918 13.947,26.851 13.402,26.743C11.267,26.318 9.307,25.277 7.77,23.752C6.233,22.227 5.189,20.286 4.768,18.174C4.348,16.062 4.571,13.874 5.409,11.887C6.247,9.901 7.662,8.204 9.476,7.012L6.95,3.259C4.385,4.944 2.383,7.344 1.198,10.153C0.014,12.963 -0.302,16.057 0.293,19.043C0.887,22.03 2.364,24.776 4.538,26.933C6.711,29.09 9.483,30.561 12.502,31.162C15.522,31.762 18.654,31.464 21.502,30.305C24.351,29.146 26.787,27.179 28.504,24.652C30.221,22.125 31.141,19.151 31.148,16.107C31.151,14.686 30.955,13.279 30.571,11.925L26.584,15.865C26.586,15.943 26.586,16.02 26.586,16.097C26.581,18.25 25.931,20.352 24.717,22.139C23.503,23.926 21.78,25.318 19.766,26.137C18.364,26.707 16.865,26.983 15.363,26.954L15.211,27.104L15.049,26.944Z" style="fill:rgb(29,190,122);"/>
            <path d="M23.462,2.804C20.919,1.328 17.982,0.583 14.988,0.695C10.86,0.848 6.964,2.616 4.155,5.608C1.346,8.601 -0.144,12.574 0.011,16.653C0.166,20.732 1.955,24.582 4.983,27.358L8.085,24.053C5.944,22.09 4.679,19.367 4.569,16.483C4.459,13.599 5.513,10.79 7.499,8.674C9.486,6.557 12.241,5.308 15.16,5.199C16.868,5.135 18.551,5.466 20.082,6.145L23.462,2.804Z" style="fill:rgb(94,241,179);"/>
            <path d="M9.188,11.114L18.624,18.22L15.743,21.906L8.171,12.102L9.188,11.114Z" style="fill:rgb(58,58,58);fill-rule:nonzero;"/>
            <path d="M32.088,0.753L12.793,17.831L15.843,21.906L33.105,1.741L32.088,0.753Z" style="fill:rgb(58,58,58);fill-rule:nonzero;"/>
        </g>
    </g>
</svg>
