<svg width="100%" height="100%" viewBox="0 0 32 32" fill="none" xmlns="http://www.w3.org/2000/svg">
<path d="M9.91997 22.0796C10.24 26.8796 12.8 30.3996 16 30.3996C19.2 30.3996 21.76 26.8796 22.08 22.0796C26.88 21.7596 30.4 19.1996 30.4 15.9996C30.4 12.7996 26.88 10.2396 22.08 9.91961C21.76 5.11961 19.2 1.59961 16 1.59961C12.8 1.59961 10.24 5.11961 9.91997 9.91961C5.11998 10.2396 1.59998 12.7996 1.59998 15.9996C1.59998 19.1996 5.11998 21.7596 9.91997 22.0796ZM18.56 26.2396C18.08 26.8796 17.28 28.1596 16 28.1596C14.72 28.1596 13.92 27.0396 13.44 26.2396C12.8 25.1196 12.32 23.6796 12.16 22.0796C15.52 21.7596 18.4 20.3196 19.52 18.3996C19.68 19.1996 19.84 20.1596 19.84 20.9596C19.84 23.0396 19.36 24.7996 18.56 26.2396ZM13.92 15.9996C13.92 14.8796 14.88 13.9196 16 13.9196C17.12 13.9196 18.08 14.8796 18.08 15.9996C18.08 17.1196 17.12 18.0796 16 18.0796C14.88 18.0796 13.92 17.1196 13.92 15.9996ZM26.24 13.4396C26.88 13.9196 28.16 14.7196 28.16 15.9996C28.16 17.2796 27.04 18.0796 26.24 18.5596C25.12 19.1996 23.68 19.6796 22.08 19.8396C21.76 16.4796 20.32 13.5996 18.4 12.4796C19.2 12.3196 20.16 12.1596 20.96 12.1596C23.04 12.1596 24.8 12.6396 26.24 13.4396ZM13.44 5.75961C13.92 5.11961 14.72 3.83961 16 3.83961C17.28 3.83961 18.08 4.95961 18.56 5.75961C19.2 6.87961 19.68 8.31961 19.84 9.91961C16.48 10.2396 13.6 11.6796 12.48 13.5996C12.16 12.7996 12.16 11.8396 12.16 10.8796C12.16 8.95961 12.64 7.19961 13.44 5.75961ZM5.75998 13.4396C6.87998 12.7996 8.31997 12.3196 9.91997 12.1596C10.24 15.5196 11.68 18.3996 13.6 19.5196C12.8 19.6796 11.84 19.8396 11.04 19.8396C9.11998 19.8396 7.19998 19.3596 5.75998 18.5596C5.11998 18.0796 3.83998 17.2796 3.83998 15.9996C3.83998 14.7196 5.11998 13.9196 5.75998 13.4396Z" fill="currentColor"></path>
</svg>
