<?xml version="1.0" encoding="UTF-8" standalone="no"?>
<!DOCTYPE svg PUBLIC "-//W3C//DTD SVG 1.1//EN" "http://www.w3.org/Graphics/SVG/1.1/DTD/svg11.dtd">
<svg width="100%" height="100%" viewBox="0 0 33 22" version="1.1" xmlns="http://www.w3.org/2000/svg" xmlns:xlink="http://www.w3.org/1999/xlink" xml:space="preserve" xmlns:serif="http://www.serif.com/" style="fill-rule:evenodd;clip-rule:evenodd;stroke-linejoin:round;stroke-miterlimit:2;">
    <g transform="matrix(1,0,0,1.00127,-0.0064,0.15)">
        <path d="M0,5.425C0,1.852 1.408,0 3.78,0C6.152,0 7.56,1.852 7.56,5.425L7.56,16.248C7.56,19.821 6.153,21.673 3.78,21.673C1.408,21.673 0,19.821 0,16.248L0,5.425ZM25.464,0L17.651,0C10.642,0 10.089,3.027 10.089,7.063L10.08,14.599C10.08,18.807 10.608,21.673 17.678,21.673L25.464,21.673C32.496,21.673 33.013,18.656 33.013,14.62L33.013,7.074C33.013,3.027 32.474,0 25.464,0Z"/>
    </g>
</svg>
