<?xml version="1.0" encoding="UTF-8" standalone="no"?>
<!DOCTYPE svg PUBLIC "-//W3C//DTD SVG 1.1//EN" "http://www.w3.org/Graphics/SVG/1.1/DTD/svg11.dtd">
<svg width="100%" height="100%" viewBox="0 0 48 48" version="1.1" xmlns="http://www.w3.org/2000/svg" xmlns:xlink="http://www.w3.org/1999/xlink" xml:space="preserve" xmlns:serif="http://www.serif.com/" style="fill-rule:evenodd;clip-rule:evenodd;stroke-linejoin:round;stroke-miterlimit:2;">
    <rect id="Tavola-da-disegno1" serif:id="Tavola da disegno1" x="0" y="0" width="48" height="48" style="fill:none;"/>
    <g id="Tavola-da-disegno11" serif:id="Tavola da disegno1">
        <g>
            <path d="M0,12C0,5.373 5.373,0 12,0L36,0C42.627,0 48,5.373 48,12L48,36C48,42.627 42.627,48 36,48L12,48C5.373,48 0,42.627 0,36L0,12Z" style="fill:rgb(24,104,219);fill-rule:nonzero;"/>
            <path d="M34.74,28.53C27.333,24.949 25.169,24.414 22.048,24.414C18.387,24.414 15.266,25.937 12.478,30.218L12.02,30.918C11.646,31.494 11.563,31.7 11.563,31.947C11.563,32.194 11.687,32.4 12.145,32.688L16.847,35.611C17.097,35.775 17.305,35.858 17.513,35.858C17.763,35.858 17.929,35.734 18.179,35.364L18.928,34.211C20.093,32.441 21.133,31.865 22.465,31.865C23.63,31.865 25.003,32.194 26.709,33.017L31.619,35.322C32.118,35.569 32.659,35.446 32.909,34.87L35.239,29.765C35.489,29.189 35.322,28.818 34.74,28.53ZM13.144,19.515C20.55,23.096 22.714,23.631 25.835,23.631C29.497,23.631 32.617,22.108 35.405,17.827L35.863,17.127C36.238,16.551 36.321,16.345 36.321,16.098C36.321,15.851 36.196,15.645 35.738,15.357L31.036,12.435C30.787,12.27 30.578,12.188 30.371,12.188C30.121,12.188 29.954,12.311 29.705,12.682L28.956,13.834C27.791,15.604 26.75,16.18 25.419,16.18C24.254,16.18 22.881,15.851 21.174,15.028L16.265,12.723C15.765,12.476 15.224,12.599 14.975,13.176L12.644,18.28C12.395,18.856 12.561,19.227 13.144,19.515Z" style="fill:white;fill-rule:nonzero;"/>
        </g>
    </g>
</svg>
