<svg xmlns="http://www.w3.org/2000/svg" fill="none" height="36" width="36"><circle fill="#262B2E" r="18" cy="18" cx="18"></circle><circle fill="#828A8E" transform="rotate(10 18 18)" r="15" cy="18" cx="18" opacity=".2"></circle><path fill="#F69833" d="M20.605 3.228a3 3 0 0 0-3.476 2.433l-4.167 23.636a3 3 0 0 0 2.433 3.475c8.159 1.439 15.939-4.009 17.377-12.167 1.439-8.159-4.009-15.938-12.167-17.377z"></path><path fill="#FFC738" d="M19.203 3.314a3 3 0 0 0-2.074 2.348l-4.167 23.635a3 3 0 0 0 1.146 2.915c6.926-.242 12.98-5.289 14.232-12.388 1.252-7.1-2.71-13.913-9.137-16.51z" clip-rule="evenodd" fill-rule="evenodd"></path></svg>