<?xml version="1.0" encoding="UTF-8" standalone="no"?>
<!DOCTYPE svg PUBLIC "-//W3C//DTD SVG 1.1//EN" "http://www.w3.org/Graphics/SVG/1.1/DTD/svg11.dtd">
<svg width="100%" height="100%" viewBox="0 0 32 32" version="1.1" xmlns="http://www.w3.org/2000/svg" xmlns:xlink="http://www.w3.org/1999/xlink" xml:space="preserve" xmlns:serif="http://www.serif.com/" style="fill-rule:evenodd;clip-rule:evenodd;stroke-linejoin:round;stroke-miterlimit:2;">
    <rect id="Tavola-da-disegno1" serif:id="Tavola da disegno1" x="0" y="0" width="32" height="32" style="fill:none;"/>
    <g id="Tavola-da-disegno11" serif:id="Tavola da disegno1">
        <g transform="matrix(0.997351,0,0,0.997351,0,0.042649)">
            <path d="M16.043,-0.043C24.903,-0.043 32.085,7.14 32.085,16C32.085,24.86 24.903,32.042 16.043,32.042C7.183,32.042 0,24.86 0,16C0,7.14 7.183,-0.043 16.043,-0.043ZM13.917,4.859C11.933,4.865 10.148,8.048 8.608,14.31C7.513,14.297 6.52,14.278 5.586,14.265L5.271,14.265C5.213,14.267 5.155,14.271 5.097,14.278C4.633,14.362 4.272,14.735 4.201,15.205C4.111,15.811 4.53,16.378 5.136,16.468L5.148,16.481L8.112,16.481C7.842,17.73 7.596,18.974 7.396,20.166L7.307,20.695L7.307,20.72C7.307,20.971 7.436,21.204 7.648,21.339C7.99,21.558 8.447,21.455 8.666,21.113L8.686,21.132L10.135,16.488L17.118,16.488C17.653,18.511 18.207,20.592 18.941,22.55C19.334,23.6 20.249,26.047 21.782,26.061L21.802,26.061C24.173,26.061 25.101,22.228 25.713,19.69C25.848,19.142 25.958,18.671 26.067,18.324L26.112,18.182C26.119,18.15 26.125,18.117 26.125,18.078C26.125,17.93 26.029,17.795 25.894,17.743C25.707,17.666 25.494,17.763 25.417,17.95L25.365,18.092C25.165,18.653 24.979,19.181 24.812,19.645L24.798,19.676C23.767,22.582 23.297,23.909 22.382,23.909L22.318,23.909C21.139,23.909 20.037,19.129 19.618,17.331C19.547,17.022 19.477,16.732 19.419,16.481L27.022,16.481C27.163,16.481 27.299,16.448 27.421,16.384L27.452,16.365L27.511,16.326C27.53,16.314 27.549,16.3 27.568,16.287C27.723,16.159 27.833,15.984 27.878,15.804C27.975,15.347 27.672,14.896 27.215,14.806L27.208,14.806L27.195,14.799L27.183,14.799C27.138,14.793 27.099,14.786 27.054,14.786L26.938,14.774C24.251,14.58 21.481,14.503 18.891,14.451L18.884,14.432C17.621,9.697 16.043,4.859 13.917,4.859ZM13.833,6.997C13.949,6.997 14.046,7.062 14.136,7.178C14.354,7.519 14.741,8.299 15.315,10.032C15.708,11.223 16.133,12.693 16.584,14.407C14.877,14.381 13.144,14.362 11.469,14.342L10.618,14.335C11.578,10.586 12.745,7.744 13.602,7.074C13.673,7.03 13.75,7.004 13.833,6.997Z" style="fill-rule:nonzero;"/>
        </g>
    </g>
</svg>
