<?xml version="1.0" encoding="UTF-8" standalone="no"?>
<!DOCTYPE svg PUBLIC "-//W3C//DTD SVG 1.1//EN" "http://www.w3.org/Graphics/SVG/1.1/DTD/svg11.dtd">
<svg width="100%" height="100%" viewBox="0 0 24 24" version="1.1" xmlns="http://www.w3.org/2000/svg" xmlns:xlink="http://www.w3.org/1999/xlink" xml:space="preserve" xmlns:serif="http://www.serif.com/" style="fill-rule:evenodd;clip-rule:evenodd;stroke-linejoin:round;stroke-miterlimit:2;">
    <rect id="Tavola-da-disegno1" serif:id="Tavola da disegno1" x="0" y="0" width="24" height="24" style="fill:none;"/>
    <g id="Tavola-da-disegno11" serif:id="Tavola da disegno1">
        <g>
            <circle cx="12" cy="12" r="12" style="fill:rgb(252,82,31);"/>
            <path d="M14.82,17.52L12.913,16.42L18.65,13.111C18.869,12.984 19.076,12.839 19.27,12.676C20.021,13.744 20.082,15.159 19.424,16.287C18.499,17.887 16.421,18.444 14.82,17.52ZM14.36,18.315C14.58,18.442 14.81,18.549 15.048,18.635C14.497,19.82 13.301,20.579 11.994,20.573C10.147,20.571 8.627,19.053 8.624,17.206L8.624,10.587L11.535,12.267L11.535,16.42C11.535,16.584 11.623,16.735 11.765,16.817L14.361,18.315L14.36,18.315ZM7.496,17.971C6.294,17.969 5.18,17.327 4.576,16.288C4.127,15.516 4.005,14.594 4.239,13.732C4.472,12.863 5.029,12.137 5.809,11.688L7.715,10.588L7.715,17.205C7.715,17.459 7.737,17.71 7.782,17.959C7.687,17.967 7.591,17.971 7.496,17.971ZM14.914,9.792L12.004,11.471L8.404,9.394C8.262,9.312 8.087,9.312 7.945,9.394L5.35,10.892C5.13,11.018 4.922,11.164 4.729,11.327C3.978,10.259 3.918,8.844 4.575,7.716C5.179,6.675 6.294,6.032 7.497,6.03C8.085,6.03 8.666,6.186 9.179,6.482L14.914,9.792ZM11.994,3.43C13.853,3.43 15.364,4.94 15.364,6.798L15.364,8.998L9.629,5.689C9.41,5.562 9.179,5.455 8.941,5.369C9.492,4.184 10.687,3.425 11.994,3.43ZM19.424,7.717C20.346,9.317 19.789,11.393 18.19,12.317L12.454,15.625L12.454,12.268L16.054,10.191C16.196,10.109 16.284,9.957 16.284,9.793L16.284,6.798C16.284,6.545 16.261,6.293 16.218,6.045C17.518,5.937 18.769,6.589 19.424,7.717Z" style="fill:white;"/>
        </g>
    </g>
</svg>
