<svg width="215" height="40" viewBox="0 0 215 40" fill="none" xmlns="http://www.w3.org/2000/svg">
<path d="M9.96775 9.32054V0.00390625C7.32965 0.00389272 4.79913 1.05448 2.93072 2.92545C1.06232 4.79641 0.00843046 7.33515 0 9.98533L0 10.0173C0.00882868 12.6627 1.05943 15.1971 2.9223 17.0669C4.78518 18.9366 7.30893 19.9898 9.94226 19.9963H9.96695C12.6001 19.9896 15.1237 18.9363 16.9864 17.0666C18.8491 15.1968 19.8996 12.6626 19.9084 10.0173V0.00390625C17.3854 0.00464714 14.9565 0.966534 13.1117 2.69556C11.2668 4.42458 10.1433 6.79208 9.96775 9.32054Z" fill="#171D1A"/>
<path d="M29.8492 19.9997H39.8169C39.8162 17.4652 38.8588 15.0253 37.1378 13.172C35.4169 11.3187 33.0604 10.19 30.5436 10.0134H39.8169C39.8171 7.36331 38.7715 4.82119 36.9092 2.9442C35.0469 1.06722 32.5198 0.00846952 29.8818 0L29.85 0C27.2162 0.00823634 24.6928 1.06337 22.831 2.93485C20.9693 4.80633 19.9206 7.34201 19.9141 9.98783V10.0126C19.9208 12.6582 20.9695 15.1935 22.831 17.0648C24.6926 18.9361 27.2157 19.9912 29.8492 19.9997Z" fill="#171D1A"/>
<path d="M9.97263 19.9995H0.00488281C0.00507568 22.5331 0.961289 24.9724 2.6808 26.8259C4.40031 28.6793 6.75528 29.809 9.27106 29.9873H0.00488281C0.00487001 32.6375 1.05069 35.1795 2.91315 37.0563C4.7756 38.9332 7.30276 39.9917 9.94077 40H9.97263C12.606 39.9911 15.1288 38.9357 16.99 37.0643C18.8512 35.1929 19.8996 32.6575 19.9061 30.0121V29.9873C19.8996 27.3419 18.8512 24.8066 16.99 22.9352C15.1288 21.0638 12.606 20.0084 9.97263 19.9995Z" fill="#171D1A"/>
<path d="M29.8818 20.0029H29.8571C27.2234 20.0093 24.6992 21.0626 22.8361 22.9327C20.973 24.8028 19.9225 27.3377 19.9141 29.9836V39.997C22.4366 39.9967 24.8652 39.0357 26.7103 37.3076C28.5553 35.5796 29.6796 33.213 29.8563 30.6852V39.997C32.4944 39.9972 35.0249 38.9468 36.8933 37.076C38.7617 35.2051 39.8156 32.6665 39.8241 30.0164V29.9844C39.8157 27.3386 38.7653 24.8037 36.9024 22.9335C35.0395 21.0633 32.5155 20.0097 29.8818 20.0029Z" fill="#171D1A"/>
<path d="M60.9937 21.4209C56.7899 20.113 56.1201 20.0746 56.1201 19.5522C56.1201 19.0298 57.0136 18.8426 57.7574 18.8426C58.3531 18.8426 59.6543 19.029 59.6543 20.001H65.9788C65.9788 16.6002 62.9288 13.6099 57.5376 13.6099C53.4835 13.6099 49.8004 15.8498 49.8004 19.5522C49.8004 22.7289 52.07 24.5225 55.7905 25.4945C59.4361 26.4288 60.4028 26.5408 60.4028 27.2544C60.4028 27.9264 59.2123 28.0392 58.5052 28.0392C56.7532 28.0392 55.5659 27.4792 55.5659 26.544H49.2422C49.2422 31.1784 52.9993 33.2711 58.3563 33.2711C62.7831 33.2711 66.7273 31.328 66.7273 27.4032C66.7273 25.4969 65.9828 22.9561 60.9977 21.4233" fill="#171D1A"/>
<path d="M82.2843 22.5871C82.2843 26.3614 80.1636 27.2966 78.3822 27.2966C76.3357 27.2966 75.294 26.2126 75.294 22.2143V13.9912H68.9688V25.279C68.9688 30.2493 71.0153 33.2789 75.7774 33.2789C78.1928 33.2007 80.5014 32.2598 82.2883 30.6253L82.6617 32.9053H88.6136V13.992H82.2883L82.2843 22.5871Z" fill="#171D1A"/>
<path d="M102.001 13.6116C101.255 13.6665 100.529 13.8777 99.8686 14.2316C99.2087 14.5856 98.6298 15.0745 98.1693 15.6668L97.9081 13.9868H91.957V32.8945H98.2815V25.7938C98.2815 21.1595 99.695 19.5899 101.593 19.5899C102.196 19.5903 102.793 19.7181 103.345 19.9651L104.163 14.3964C103.571 13.8658 102.798 13.5848 102.005 13.6116" fill="#171D1A"/>
<path d="M116.873 26.1006L112.334 13.9912H105.266L113.19 32.9021H120.516L128.443 13.992H121.375L116.873 26.1006Z" fill="#171D1A"/>
<path d="M133.468 11.9689C134.057 11.9689 134.632 11.7937 135.121 11.4654C135.611 11.1372 135.992 10.6706 136.217 10.1246C136.443 9.57873 136.502 8.97801 136.387 8.39844C136.272 7.81887 135.989 7.28647 135.573 6.86858C135.157 6.45068 134.626 6.16605 134.049 6.05067C133.472 5.9353 132.874 5.99435 132.33 6.22038C131.786 6.4464 131.321 6.82924 130.994 7.32049C130.667 7.81174 130.492 8.38934 130.492 8.98025C130.492 9.00584 130.492 9.03222 130.492 9.0602C130.497 9.44755 130.578 9.83011 130.73 10.186C130.883 10.542 131.103 10.8643 131.38 11.1347C131.656 11.405 131.983 11.618 132.341 11.7616C132.699 11.9051 133.082 11.9764 133.468 11.9713" fill="#171D1A"/>
<path d="M136.636 13.9912H130.313V32.9021H136.636V13.9912Z" fill="#171D1A"/>
<path d="M139.234 23.4399C139.2 24.721 139.423 25.9957 139.889 27.1886C140.355 28.3816 141.055 29.4685 141.946 30.385C142.838 31.3015 143.903 32.0291 145.08 32.5245C146.256 33.0199 147.52 33.2732 148.795 33.2694C150.645 33.3354 152.463 32.7834 153.967 31.6998V25.7199C153.43 26.2405 152.794 26.6477 152.098 26.9173C151.401 27.1869 150.658 27.3134 149.912 27.2894C149.397 27.3077 148.884 27.2217 148.403 27.0364C147.923 26.8512 147.484 26.5706 147.113 26.2113C146.743 25.852 146.448 25.4215 146.247 24.9453C146.046 24.4692 145.942 23.9572 145.942 23.4399C145.942 22.9226 146.046 22.4106 146.247 21.9345C146.448 21.4583 146.743 21.0278 147.113 20.6685C147.484 20.3093 147.923 20.0286 148.403 19.8434C148.884 19.6582 149.397 19.5721 149.912 19.5904C150.652 19.5595 151.392 19.6756 152.088 19.9322C152.783 20.1888 153.422 20.5807 153.967 21.0855V15.1808C152.463 14.0972 150.645 13.5452 148.795 13.6113C147.522 13.6136 146.261 13.8711 145.087 14.3687C143.914 14.8663 142.851 15.5939 141.961 16.5091C141.07 17.4243 140.371 18.5086 139.902 19.6986C139.434 20.8887 139.207 22.1606 139.234 23.4399Z" fill="#171D1A"/>
<path d="M171.01 16.4898C170.229 14.9578 168.183 13.6099 165.318 13.6099C159.924 13.6099 156.203 18.0194 156.203 23.4385C156.203 28.8576 159.924 33.2671 165.318 33.2671C168.185 33.2671 170.228 31.9216 171.01 30.3872L171.384 32.8911H177.336V13.9851H171.384L171.01 16.4898ZM166.434 27.2896H166.303C165.294 27.2611 164.337 26.834 163.64 26.101C162.943 25.3681 162.562 24.3885 162.579 23.3748C162.596 22.3612 163.011 21.3953 163.733 20.6868C164.454 19.9783 165.425 19.5844 166.434 19.5906C167.451 19.5906 168.425 19.9961 169.144 20.7181C169.863 21.44 170.266 22.4191 170.266 23.4401C170.266 24.4611 169.863 25.4402 169.144 26.1621C168.425 26.8841 167.451 27.2896 166.434 27.2896Z" fill="#171D1A"/>
<path d="M189.494 8.38135H183.17V13.9877H179.934V19.9676H183.17V32.8985H189.494V19.9676H194.07V13.9877H189.494V8.38135Z" fill="#171D1A"/>
<path d="M204.97 27.6616C202.366 27.6616 201.585 26.2793 201.51 25.3817H214.012V23.7377C214.012 18.2058 210.441 13.6099 204.599 13.6099C198.796 13.6099 195.188 18.0946 195.188 23.3265C195.188 28.6336 198.945 33.2679 204.934 33.2679C210.441 33.2679 213.375 29.232 213.752 26.6904L208.246 26.1305C207.854 26.6219 207.355 27.0158 206.788 27.2815C206.22 27.5473 205.598 27.6776 204.972 27.6624L204.97 27.6616ZM204.6 19.2162C206.46 19.2162 207.614 20.113 207.688 21.0849H201.512C201.586 20.113 202.739 19.2162 204.599 19.2162" fill="#171D1A"/>
</svg>
