<?xml version="1.0" encoding="UTF-8" standalone="no"?>
<!DOCTYPE svg PUBLIC "-//W3C//DTD SVG 1.1//EN" "http://www.w3.org/Graphics/SVG/1.1/DTD/svg11.dtd">
<svg width="100%" height="100%" viewBox="0 0 22 24" version="1.1" xmlns="http://www.w3.org/2000/svg" xmlns:xlink="http://www.w3.org/1999/xlink" xml:space="preserve" xmlns:serif="http://www.serif.com/" style="fill-rule:evenodd;clip-rule:evenodd;stroke-linejoin:round;stroke-miterlimit:2;">
    <g id="Tavola-da-disegno1" serif:id="Tavola da disegno1" transform="matrix(0.916667,0,0,1.09091,0,0)">
        <rect x="0" y="0" width="24" height="22" style="fill:none;"/>
        <clipPath id="_clip1">
            <rect x="0" y="0" width="24" height="22"/>
        </clipPath>
        <g clip-path="url(#_clip1)">
            <g transform="matrix(1.09091,0,0,0.916667,0,0)">
                <path d="M14.51,2.496C14.575,2.491 14.639,2.49 14.701,2.491C14.9,2.496 15.383,2.538 15.773,2.929C15.827,2.983 16.17,3.317 16.512,3.651L16.83,3.961L17.131,3.967C17.328,3.972 17.527,3.976 17.682,3.979L17.874,3.983C17.91,3.984 17.93,3.984 17.94,3.984C17.946,3.984 17.946,3.984 17.946,3.984C18.656,3.984 19.219,4.514 19.327,5.167C19.334,5.204 19.526,6.503 19.799,8.343C20.008,9.758 20.266,11.495 20.522,13.222C20.818,15.214 21.113,17.204 21.336,18.696C21.447,19.442 21.54,20.064 21.606,20.499C21.639,20.716 21.665,20.886 21.683,21.001C21.692,21.059 21.698,21.101 21.702,21.127C21.703,21.13 21.703,21.133 21.703,21.135C21.739,21.316 21.733,21.506 21.682,21.691C21.565,22.11 21.232,22.434 20.81,22.538L15.054,23.965C14.892,24.005 14.723,24.011 14.558,23.982L1.273,21.686C0.635,21.576 0.198,20.983 0.282,20.342L1.478,20.498L0.282,20.342L0.533,18.419C0.683,17.262 0.885,15.716 1.088,14.156C1.496,11.029 1.907,7.866 1.932,7.656L1.934,7.643C1.949,7.518 1.971,7.339 2.011,7.175C2.058,6.983 2.152,6.713 2.375,6.462C2.589,6.222 2.836,6.098 2.998,6.029C3.132,5.972 3.283,5.923 3.41,5.883C3.432,5.875 3.452,5.867 3.466,5.862C3.507,5.848 3.557,5.831 3.609,5.814C3.716,5.779 3.866,5.732 4.047,5.675C4.265,5.606 4.536,5.523 4.846,5.427C5.09,4.507 5.519,3.514 6.038,2.689C6.976,1.184 8.327,0.056 9.941,0.002L9.943,0.002C10.651,-0.021 11.327,0.174 11.886,0.626C13.048,0.741 13.949,1.48 14.51,2.496Z"/>
                <path d="M9.995,1.199C10.535,1.181 10.987,1.355 11.335,1.738C11.353,1.772 11.387,1.791 11.405,1.826C11.474,1.808 11.526,1.808 11.578,1.808C12.379,1.808 13.058,2.277 13.51,3.147C13.649,3.425 13.753,3.686 13.823,3.912C13.991,3.861 14.131,3.82 14.238,3.788L14.238,22.703L1.471,20.493C1.471,20.493 3.054,8.228 3.159,7.792C3.228,7.218 3.246,7.2 3.855,7.009C3.881,6.989 4.714,6.729 5.908,6.366C6.029,5.444 6.481,4.261 7.073,3.322C7.908,1.982 8.952,1.233 9.995,1.199ZM9.857,7.931C6.934,8.122 5.611,10.158 5.75,12.159C5.907,14.559 8.308,14.473 8.395,15.934C8.412,16.282 8.186,16.787 7.577,16.822C6.638,16.891 5.472,16.004 5.472,16.004L5.02,17.917C5.02,17.917 6.186,19.17 8.308,19.031C10.065,18.926 11.283,17.517 11.161,15.447C10.987,12.82 8.048,12.576 7.978,11.463C7.96,11.272 7.978,10.455 9.265,10.368C10.152,10.298 10.901,10.646 10.901,10.646L11.562,8.14C11.562,8.14 10.987,7.861 9.857,7.931ZM10.013,1.895C8.395,1.947 6.986,4.47 6.62,6.122C7.195,5.948 7.821,5.757 8.448,5.566C8.656,4.505 9.161,3.39 9.822,2.677C10.082,2.416 10.361,2.19 10.639,2.051C10.465,1.947 10.256,1.895 10.013,1.895ZM11.075,2.608C10.779,2.747 10.518,2.973 10.327,3.164C9.839,3.704 9.422,4.522 9.213,5.339C9.961,5.113 10.726,4.869 11.422,4.66C11.44,4.086 11.37,3.234 11.075,2.608ZM11.805,2.556C12.049,3.182 12.118,3.931 12.118,4.452C12.501,4.331 12.849,4.226 13.161,4.139C12.988,3.6 12.605,2.713 11.805,2.556Z" style="fill:rgb(99,244,76);fill-rule:nonzero;"/>
                <path d="M16.345,5.147C16.345,5.147 17.876,5.182 17.963,5.182C18.05,5.182 18.137,5.252 18.155,5.356C18.173,5.465 20.521,21.345 20.521,21.345L15.444,22.604L15.444,4.27C15.844,4.66 16.333,5.135 16.345,5.147Z" style="fill:rgb(99,244,76);fill-rule:nonzero;"/>
            </g>
        </g>
    </g>
</svg>
