<?xml version="1.0" encoding="UTF-8" standalone="no"?>
<!DOCTYPE svg PUBLIC "-//W3C//DTD SVG 1.1//EN" "http://www.w3.org/Graphics/SVG/1.1/DTD/svg11.dtd">
<svg width="100%" height="100%" viewBox="0 0 20 33" version="1.1" xmlns="http://www.w3.org/2000/svg" xmlns:xlink="http://www.w3.org/1999/xlink" xml:space="preserve" xmlns:serif="http://www.serif.com/" style="fill-rule:evenodd;clip-rule:evenodd;stroke-linejoin:round;stroke-miterlimit:2;">
    <rect id="Tavola-da-disegno1" serif:id="Tavola da disegno1" x="0" y="0" width="20" height="33" style="fill:none;"/>
    <clipPath id="_clip1">
        <rect id="Tavola-da-disegno11" serif:id="Tavola da disegno1" x="0" y="0" width="20" height="33"/>
    </clipPath>
    <g clip-path="url(#_clip1)">
        <g transform="matrix(1,0,0,1,-10.0157,-3.5)">
            <path d="M19.909,3.958C18.301,3.958 17.097,5.163 17.097,6.77C17.097,7.306 17.231,7.842 17.633,8.378L18.837,7.173L18.837,6.772C18.837,6.102 19.373,5.568 20.042,5.568C20.71,5.568 21.246,6.103 21.246,6.772C21.246,7.44 20.71,7.976 20.042,7.976L19.64,7.976L18.436,9.048C19.774,9.851 21.516,9.584 22.319,8.245C23.122,6.906 22.855,5.164 21.516,4.362C21.115,4.094 20.579,3.96 19.909,3.96L19.909,3.958Z" style="fill:rgb(174,203,250);fill-rule:nonzero;"/>
            <path d="M18.837,12.127C18.837,11.19 18.57,10.252 18.034,9.449L16.427,11.057C16.561,11.458 16.694,11.727 16.694,12.129C16.694,12.799 16.427,13.333 16.023,13.736L16.826,15.879C18.165,15.076 18.835,13.603 18.835,12.13L18.837,12.127Z" style="fill:rgb(94,151,246);fill-rule:nonzero;"/>
            <path d="M14.552,14.403C13.348,14.403 12.276,13.466 12.276,12.259C12.276,11.054 13.213,9.984 14.419,9.984C14.821,9.984 15.357,10.118 15.758,10.385L17.366,8.912C16.428,8.109 15.491,7.707 14.419,7.707C12.009,7.707 10,9.716 10,12.127C10,14.537 11.875,16.546 14.419,16.546C14.686,16.546 15.09,16.546 15.357,16.412L14.554,14.403L14.552,14.403Z" style="fill:rgb(94,151,246);fill-rule:nonzero;"/>
            <path d="M20.043,16.143C19.106,16.143 18.169,16.278 17.231,16.545L18.436,19.491C18.972,19.491 19.507,19.356 20.043,19.356C23.792,19.356 26.738,22.437 26.738,26.052C26.738,29.667 23.658,32.747 20.043,32.747C16.428,32.747 13.348,29.667 13.348,26.052C13.348,23.507 14.687,21.231 16.963,20.159L15.758,17.213C10.803,19.625 8.796,25.65 11.204,30.471C13.615,35.426 19.64,37.434 24.461,35.023C29.416,32.613 31.423,26.588 29.013,21.767C27.273,18.419 23.791,16.143 20.041,16.143L20.043,16.143Z" style="fill:rgb(66,133,244);fill-rule:nonzero;"/>
        </g>
    </g>
</svg>
