<?xml version="1.0" encoding="UTF-8" standalone="no"?>
<!DOCTYPE svg PUBLIC "-//W3C//DTD SVG 1.1//EN" "http://www.w3.org/Graphics/SVG/1.1/DTD/svg11.dtd">
<svg width="100%" height="100%" viewBox="0 0 25 20" version="1.1" xmlns="http://www.w3.org/2000/svg" xmlns:xlink="http://www.w3.org/1999/xlink" xml:space="preserve" xmlns:serif="http://www.serif.com/" style="fill-rule:evenodd;clip-rule:evenodd;stroke-linejoin:round;stroke-miterlimit:2;">
    <rect id="Tavola-da-disegno1" serif:id="Tavola da disegno1" x="0" y="0" width="25" height="20" style="fill:none;"/>
    <clipPath id="_clip1">
        <rect id="Tavola-da-disegno11" serif:id="Tavola da disegno1" x="0" y="0" width="25" height="20"/>
    </clipPath>
    <g clip-path="url(#_clip1)">
        <g>
            <path d="M24.662,4.548C24.556,4.192 24.226,3.945 23.855,3.945C23.743,3.945 23.632,3.968 23.529,4.011C23.264,4.123 22.849,4.253 22.331,4.277C21.439,3.439 18.97,1.563 17.241,0.622C17.241,0.622 17.453,1.239 17.744,2.392C17.744,2.392 15.884,0.938 13.778,0C13.778,0 14.371,1.217 14.42,1.61C14.42,1.61 12.488,0.938 9.779,0.683C9.779,0.683 11.079,1.591 11.585,2.286C11.585,2.286 9.67,2.188 6.81,2.286C6.81,2.286 8.435,2.946 9.153,3.552C9.153,3.552 5.759,3.897 3.841,4.449C3.841,4.449 6.002,5.212 6.602,5.779C6.602,5.779 3.846,6.565 1.068,8.17C1.068,8.17 2.611,8.44 3.819,8.969C3.819,8.969 2.281,10.045 -0,12.982C-0,12.982 1.685,12.661 2.841,12.752C2.841,12.752 1.377,14.464 0.612,17.084C0.612,17.084 1.46,16.544 2.281,16.348C2.281,16.348 2.369,19.472 4.076,19.973L4.077,19.971C4.152,19.995 4.231,20.007 4.31,20.007C4.393,20.007 4.48,19.994 4.569,19.968C5.11,19.813 5.52,19.278 5.995,18.659C6.15,18.456 6.31,18.249 6.48,18.045C6.689,17.749 6.936,17.482 7.214,17.251C7.817,16.753 8.652,16.376 9.67,16.527C10.815,16.623 11.522,17.765 12.091,18.684C12.387,19.161 12.778,20.007 13.434,20.007C14.158,20.007 14.413,19.137 14.735,18.066C15.039,17.056 15.491,16.097 16.078,15.22C17.208,13.536 18.654,12.62 20.388,11.718C22.048,10.853 23.618,10.036 24.406,8.798C24.799,8.178 24.995,7.418 24.986,6.538C24.971,5.863 24.862,5.193 24.662,4.548ZM16.119,3.837L14.026,2.494L17.476,3.725L16.119,3.837ZM10.365,4.449L13.68,5.298L15.126,4.818L10.366,4.449L10.365,4.449ZM16.275,6.113L16.982,5.576L14.245,6.036L16.275,6.113ZM11.585,6.113L10.452,6.873L7.31,6.573L11.585,6.113ZM15.125,8.012L16.275,7.368L12,7.828L15.125,8.012ZM11.958,8.728L11.157,10.046L7.145,11.028L11.958,8.728ZM6.947,9.538L3.841,10.908L7.653,8.17L6.947,9.54L6.947,9.538ZM5.248,11.18L5.125,12.55L3.342,14.788L5.248,11.18Z" style="fill:rgb(150,106,186);"/>
            <path d="M16.398,19.7C16.045,19.694 15.669,19.394 15.258,18.785C15.5,17.407 16.46,15.647 17.614,14.466C17.319,15.563 17.28,16.664 17.248,17.548L17.248,17.549C17.228,18.121 17.21,18.615 17.128,18.974C17.018,19.456 16.776,19.7 16.41,19.7L16.398,19.7Z" style="fill:rgb(150,106,186);fill-rule:nonzero;"/>
            <path d="M6.86,18.716C7.15,19.377 7.46,19.699 7.806,19.699C7.834,19.699 7.862,19.697 7.89,19.693C8.36,19.618 8.795,18.698 9.159,17.809C9.253,17.579 9.342,17.348 9.421,17.134C8.381,17.146 7.371,17.991 6.861,18.716L6.86,18.716Z" style="fill:rgb(150,106,186);fill-rule:nonzero;"/>
        </g>
    </g>
</svg>
