<?xml version="1.0" encoding="UTF-8" standalone="no"?>
<!DOCTYPE svg PUBLIC "-//W3C//DTD SVG 1.1//EN" "http://www.w3.org/Graphics/SVG/1.1/DTD/svg11.dtd">
<svg width="100%" height="100%" viewBox="0 0 18 20" version="1.1" xmlns="http://www.w3.org/2000/svg" xmlns:xlink="http://www.w3.org/1999/xlink" xml:space="preserve" xmlns:serif="http://www.serif.com/" style="fill-rule:evenodd;clip-rule:evenodd;stroke-linejoin:round;stroke-miterlimit:2;">
    <g id="Tavola-da-disegno1" serif:id="Tavola da disegno1" transform="matrix(1,0,0,0.909091,0,0)">
        <rect x="0" y="0" width="18" height="22" style="fill:none;"/>
        <g transform="matrix(1,0,0,1.1,-0.227961,0.342515)">
            <g transform="matrix(0.247191,0,0,0.247191,0.606742,3.5128e-15)">
                <path d="M28.75,32.079C37.804,27.058 50.214,20.163 50.214,0.129L35.202,0.129C35.202,11.343 29.738,14.387 21.465,18.966C12.411,23.987 0,30.882 0,50.916L15.012,50.916C15.012,39.702 20.476,36.658 28.75,32.079Z" style="fill:rgb(231,60,31);fill-rule:nonzero;"/>
            </g>
            <g transform="matrix(0.247191,0,0,0.247191,0.606742,3.5128e-15)">
                <path d="M54.741,27.474C54.741,38.688 49.277,41.732 41.004,46.311C31.95,51.332 19.539,58.227 19.539,78.261L34.551,78.261C34.551,67.047 40.015,64.003 48.289,59.424C57.343,54.402 69.754,47.508 69.754,27.474L54.741,27.474Z" style="fill:rgb(231,60,31);fill-rule:nonzero;"/>
            </g>
        </g>
    </g>
</svg>
